<?xml version="1.0" encoding="UTF-8" standalone="no"?>
<!-- Generator: Adobe Illustrator 19.0.0, SVG Export Plug-In . SVG Version: 6.00 Build 0)  -->

<svg
   xmlns:dc="http://purl.org/dc/elements/1.1/"
   xmlns:cc="http://creativecommons.org/ns#"
   xmlns:rdf="http://www.w3.org/1999/02/22-rdf-syntax-ns#"
   xmlns:svg="http://www.w3.org/2000/svg"
   xmlns="http://www.w3.org/2000/svg"
   xmlns:sodipodi="http://sodipodi.sourceforge.net/DTD/sodipodi-0.dtd"
   xmlns:inkscape="http://www.inkscape.org/namespaces/inkscape"
   version="1.1"
   id="Layer_1"
   x="0px"
   y="0px"
   viewBox="0 0 512 512"
   style="enable-background:new 0 0 512 512;"
   xml:space="preserve"
   inkscape:version="0.91 r13725"
   sodipodi:docname="sudoku-4.svg"><metadata
     id="metadata3445"><rdf:RDF><cc:Work
         rdf:about=""><dc:format>image/svg+xml</dc:format><dc:type
           rdf:resource="http://purl.org/dc/dcmitype/StillImage" /></cc:Work></rdf:RDF></metadata><defs
     id="defs3443" /><sodipodi:namedview
     pagecolor="#ffffff"
     bordercolor="#666666"
     borderopacity="1"
     objecttolerance="10"
     gridtolerance="10"
     guidetolerance="10"
     inkscape:pageopacity="0"
     inkscape:pageshadow="2"
     inkscape:window-width="2564"
     inkscape:window-height="1396"
     id="namedview3441"
     showgrid="false"
     inkscape:zoom="2.4003906"
     inkscape:cx="95.192843"
     inkscape:cy="589.81774"
     inkscape:window-x="1445"
     inkscape:window-y="486"
     inkscape:window-maximized="0"
     inkscape:current-layer="Layer_1" /><path
     style="fill:#ffffff;fill-opacity:1"
     d="M256,0.001c141.385,0,256,114.615,256,255.997c0,141.385-114.615,256-256,256  c-141.388,0-256-114.615-256-256C0,114.616,114.615,0.001,256,0.001z"
     id="path3337" /><g
     id="g6604"
     transform="matrix(0.9,0,0,0.9,25.59865,27.681219)"><path
       id="path3339"
       d="m 488.181,455.237 -76.539,-20.05 0,40.145 76.539,-20.095 z"
       style="fill:#ffba1b"
       inkscape:connector-curvature="0" /><path
       id="path3341"
       d="m 411.641,446.927 c 5.212,5.469 5.681,11.017 0,16.664 l -359.307,0 0,-16.664 359.307,0 z"
       style="fill:#ff5b61"
       inkscape:connector-curvature="0" /><path
       id="path3343"
       d="m 411.641,446.927 c 5.07,-3.586 5.584,-7.47 0,-11.741 l -359.307,0 0,11.741 359.307,0 z"
       style="fill:#ec4b53"
       inkscape:connector-curvature="0" /><path
       id="path3345"
       d="m 52.337,475.332 0,-40.145 -11.347,0 0,40.145 11.347,0 z"
       style="fill:#ecf0f1"
       inkscape:connector-curvature="0" /><path
       id="path3347"
       d="m 18.293,463.987 0,-17.456 c 0,-6.24 5.107,-11.345 11.347,-11.345 l 11.347,0 0,40.145 -11.347,0 c -6.24,10e-4 -11.347,-5.106 -11.347,-11.344 z"
       style="fill:#20d0c2"
       inkscape:connector-curvature="0" /><path
       id="path3349"
       d="m 493.71,456.06 0,-1.673 -34.225,-6.676 0,14.972 34.225,-6.623 z"
       style="fill:#666666"
       inkscape:connector-curvature="0" /><path
       id="path3351"
       d="m 411.641,463.591 c 5.07,3.586 5.584,7.468 0,11.741 l -359.307,0 0,-11.741 359.307,0 z"
       style="fill:#ec4b53"
       inkscape:connector-curvature="0" /><path
       id="path3353"
       d="M 255.932,447.966 C 190.388,422.549 155.715,344.108 160.263,278.289 c 3.748,-54.181 34.078,-99.813 95.669,-100.291 61.588,0.477 91.921,46.11 95.669,100.291 4.551,65.819 -30.126,144.26 -95.669,169.677 z"
       style="fill:#ffba1b"
       inkscape:connector-curvature="0" /><g
       id="g3355"><path
         id="path3357"
         d="m 178.136,219.222 c 14.951,-23.751 39.319,-39.78 73.995,-41.129 -5.039,25.469 -27.497,44.675 -54.443,44.675 -6.883,0 -13.472,-1.256 -19.555,-3.546 l 0.003,0 z"
         style="fill:#f5a209"
         inkscape:connector-curvature="0" /><path
         id="path3359"
         d="m 259.733,178.093 c 34.676,1.348 59.044,17.377 73.995,41.129 -6.08,2.29 -12.669,3.546 -19.555,3.546 -26.946,0 -49.404,-19.206 -54.443,-44.675 l 0.003,0 z"
         style="fill:#f5a209"
         inkscape:connector-curvature="0" /></g><path
       id="path3361"
       d="m 197.688,212.473 c 30.571,0 55.5,-24.932 55.5,-55.503 0,-30.571 -24.932,-55.5 -55.5,-55.5 -30.571,0 -55.503,24.932 -55.503,55.5 0,30.571 24.932,55.503 55.503,55.503 z"
       style="fill:#0e7886"
       inkscape:connector-curvature="0" /><path
       id="path3363"
       d="m 197.688,203.192 c 25.459,0 46.223,-20.764 46.223,-46.223 0,-25.459 -20.764,-46.223 -46.223,-46.223 -25.459,0 -46.223,20.764 -46.223,46.223 0,25.459 20.761,46.223 46.223,46.223 z"
       style="fill:#ffffff"
       inkscape:connector-curvature="0" /><path
       id="path3365"
       d="m 151.68,152.526 c -0.139,1.461 -0.212,2.946 -0.212,4.443 0,25.527 20.696,46.223 46.223,46.223 25.524,0 46.223,-20.696 46.223,-46.223 0,-1.498 -0.076,-2.982 -0.212,-4.443 -2.237,23.439 -21.983,41.777 -46.007,41.777 -24.027,0 -43.773,-18.337 -46.01,-41.777 l -0.005,0 z"
       style="fill:#ecf0f1"
       inkscape:connector-curvature="0" /><path
       id="path3367"
       d="m 314.173,212.473 c 30.571,0 55.503,-24.932 55.503,-55.503 0,-30.571 -24.934,-55.5 -55.503,-55.5 -30.569,0 -55.503,24.932 -55.503,55.5 0,30.571 24.934,55.503 55.503,55.503 z"
       style="fill:#0e7886"
       inkscape:connector-curvature="0" /><path
       id="path3369"
       d="m 205.478,176.522 c 14.219,0 25.818,-11.599 25.818,-25.818 0,-14.219 -11.599,-25.816 -25.818,-25.816 -14.219,0 -25.816,11.599 -25.816,25.816 0.001,14.219 11.597,25.818 25.816,25.818 z"
       style="fill:#15bdb1"
       inkscape:connector-curvature="0" /><path
       id="path3371"
       d="m 314.176,203.192 c 25.459,0 46.223,-20.764 46.223,-46.223 0,-25.459 -20.764,-46.223 -46.223,-46.223 -25.459,0 -46.223,20.764 -46.223,46.223 0,25.459 20.764,46.223 46.223,46.223 z"
       style="fill:#ffffff"
       inkscape:connector-curvature="0" /><path
       id="path3373"
       d="m 268.165,152.526 c -0.139,1.461 -0.212,2.946 -0.212,4.443 0,25.527 20.695,46.223 46.223,46.223 25.527,0 46.223,-20.696 46.223,-46.223 0,-1.498 -0.073,-2.982 -0.212,-4.443 -2.237,23.439 -21.981,41.777 -46.01,41.777 -24.024,0 -43.77,-18.337 -46.008,-41.777 l -0.004,0 z"
       style="fill:#ecf0f1"
       inkscape:connector-curvature="0" /><path
       id="path3375"
       d="m 205.478,172.608 c 12.066,0 21.905,-9.839 21.905,-21.905 0,-12.066 -9.839,-21.902 -21.905,-21.902 -12.063,0 -21.902,9.839 -21.902,21.902 0,12.066 9.839,21.905 21.902,21.905 z"
       style="fill:#20d0c2"
       inkscape:connector-curvature="0" /><path
       id="path3377"
       d="m 205.478,161.502 c 5.949,0 10.796,-4.85 10.796,-10.796 0,-5.946 -4.85,-10.796 -10.796,-10.796 -5.946,0 -10.796,4.85 -10.796,10.796 0,5.949 4.85,10.796 10.796,10.796 z"
       style="fill:#666666"
       inkscape:connector-curvature="0" /><path
       id="path3379"
       d="m 306.385,176.522 c 14.219,0 25.816,-11.599 25.816,-25.818 0,-14.219 -11.599,-25.816 -25.816,-25.816 -14.219,0 -25.818,11.599 -25.818,25.816 0,14.219 11.599,25.818 25.818,25.818 z"
       style="fill:#15bdb1"
       inkscape:connector-curvature="0" /><path
       id="path3381"
       d="m 306.385,172.608 c 12.066,0 21.902,-9.839 21.902,-21.905 0,-12.066 -9.839,-21.902 -21.902,-21.902 -12.066,0 -21.905,9.839 -21.905,21.902 10e-4,12.066 9.839,21.905 21.905,21.905 z"
       style="fill:#20d0c2"
       inkscape:connector-curvature="0" /><path
       id="path3383"
       d="m 306.385,161.502 c 5.946,0 10.796,-4.85 10.796,-10.796 0,-5.946 -4.85,-10.796 -10.796,-10.796 -5.949,0 -10.796,4.85 -10.796,10.796 0,5.949 4.85,10.796 10.796,10.796 z"
       style="fill:#666666"
       inkscape:connector-curvature="0" /><path
       id="path3385"
       d="m 255.932,79.644 c 0,-18.099 59.857,16.74 98.313,-22.605 -5.146,120.254 -61.622,-34.086 -98.313,120.957 -36.685,-155.043 -93.167,-0.706 -98.31,-120.957 38.453,39.345 98.31,4.506 98.31,22.605 z"
       style="fill:#0e7886"
       inkscape:connector-curvature="0" /><path
       id="path3387"
       d="M 349.353,92.68 C 333.864,140.529 287.55,59.848 255.929,193.466 224.311,59.845 177.997,140.529 162.505,92.68 c 25.388,10.259 74.758,-5.889 93.424,64.287 19.098,-71.27 68.036,-54.028 93.424,-64.287 z"
       style="fill:#ffba1b"
       inkscape:connector-curvature="0" /><path
       id="path3389"
       d="m 335.377,221.695 c 1.579,4.627 2.736,167.825 -55.702,213.851 35.563,-9.842 155.125,-140.291 55.702,-213.851 z"
       style="fill:#0e7886"
       inkscape:connector-curvature="0" /><path
       id="path3391"
       d="m 255.929,159.677 -16.291,16.609 16.291,33.139 0,-49.751 0,0.003 z"
       style="fill:#ff5b61"
       inkscape:connector-curvature="0" /><path
       id="path3393"
       d="m 255.929,159.677 16.291,16.609 -16.291,33.139 0,-49.751 0,0.003 z"
       style="fill:#ec4b53"
       inkscape:connector-curvature="0" /><path
       id="path3395"
       d="m 176.625,221.695 c -1.582,4.627 -2.738,167.825 55.702,213.851 C 196.765,425.704 77.203,295.255 176.625,221.695 Z"
       style="fill:#0e7886"
       inkscape:connector-curvature="0" /><path
       id="path3397"
       d="m 279.305,421.23 c 3.544,0 6.639,2.156 8.304,5.367 1.666,-3.208 4.761,-5.367 8.304,-5.367 3.544,0 6.639,2.156 8.304,5.367 1.666,-3.208 4.761,-5.367 8.304,-5.367 5.306,0 9.608,4.837 9.608,10.802 0,5.962 -4.302,10.799 -9.608,10.799 -3.544,0 -6.639,-2.156 -8.304,-5.367 -1.666,3.208 -4.761,5.367 -8.304,5.367 -3.544,0 -6.639,-2.156 -8.304,-5.367 -1.666,3.208 -4.763,5.367 -8.304,5.367 -5.309,0 -9.608,-4.837 -9.608,-10.799 0,-5.966 4.299,-10.802 9.608,-10.802 z"
       style="fill:#15bdb1;fill-opacity:1"
       inkscape:connector-curvature="0" /><path
       id="path3399"
       d="m 274.282,442.904 c 2.177,7.237 5.312,13.928 5.312,13.928 0,0 4.879,-7.856 4.679,-13.802 -0.362,-10.773 -12.171,-7.365 -9.991,-0.129 l 0,0.003 z m 33.517,0 0,0 c 1.435,7.237 3.885,13.928 3.885,13.928 0,0 5.684,-7.856 6.096,-13.802 0.742,-10.773 -11.413,-7.365 -9.981,-0.129 l 0,0.003 z m -16.239,0 0,0 c 1.5,7.237 4.005,13.928 4.005,13.928 0,0 5.616,-7.856 5.975,-13.802 0.653,-10.773 -11.476,-7.365 -9.981,-0.129 l 0,0.003 z"
       style="fill:#666666"
       inkscape:connector-curvature="0" /><path
       id="path3401"
       d="m 232.002,421.23 c -3.544,0 -6.639,2.156 -8.304,5.367 -1.666,-3.208 -4.761,-5.367 -8.304,-5.367 -3.544,0 -6.639,2.156 -8.304,5.367 -1.666,-3.208 -4.761,-5.367 -8.304,-5.367 -5.306,0 -9.608,4.837 -9.608,10.802 0,5.962 4.302,10.799 9.608,10.799 3.544,0 6.639,-2.156 8.304,-5.367 1.666,3.208 4.761,5.367 8.304,5.367 3.544,0 6.639,-2.156 8.304,-5.367 1.666,3.208 4.763,5.367 8.304,5.367 5.309,0 9.608,-4.837 9.608,-10.799 0,-5.966 -4.299,-10.802 -9.608,-10.802 z"
       style="fill:#15bdb1;fill-opacity:1"
       inkscape:connector-curvature="0" /><path
       id="path3403"
       d="m 237.025,442.904 c -2.177,7.237 -5.312,13.928 -5.312,13.928 0,0 -4.879,-7.856 -4.679,-13.802 0.362,-10.773 12.171,-7.365 9.991,-0.129 l 0,0.003 z m -33.517,0 0,0 c -1.435,7.237 -3.885,13.928 -3.885,13.928 0,0 -5.684,-7.856 -6.096,-13.802 -0.742,-10.773 11.413,-7.365 9.981,-0.129 l 0,0.003 z m 16.239,0 0,0 c -1.5,7.237 -4.005,13.928 -4.005,13.928 0,0 -5.616,-7.856 -5.975,-13.802 -0.653,-10.773 11.476,-7.365 9.981,-0.129 l 0,0.003 z"
       style="fill:#666666"
       inkscape:connector-curvature="0" /><g
       id="g3405"><path
         id="path3407"
         d="m 195.359,149.269 c 2.972,0 5.398,-2.424 5.398,-5.401 0,-2.974 -2.424,-5.398 -5.398,-5.398 -2.972,0 -5.398,2.424 -5.398,5.398 0,2.974 2.423,5.401 5.398,5.401 z"
         style="fill:#ffffff"
         inkscape:connector-curvature="0" /><path
         id="path3409"
         d="m 298.784,148.293 c 2.972,0 5.401,-2.424 5.401,-5.398 0,-2.974 -2.426,-5.401 -5.401,-5.401 -2.972,0 -5.398,2.424 -5.398,5.401 0,2.974 2.423,5.398 5.398,5.398 z"
         style="fill:#ffffff"
         inkscape:connector-curvature="0" /></g></g><g
     id="g3411" /><g
     id="g3413" /><g
     id="g3415" /><g
     id="g3417" /><g
     id="g3419" /><g
     id="g3421" /><g
     id="g3423" /><g
     id="g3425" /><g
     id="g3427" /><g
     id="g3429" /><g
     id="g3431" /><g
     id="g3433" /><g
     id="g3435" /><g
     id="g3437" /><g
     id="g3439" /></svg>