<?xml version="1.0" encoding="UTF-8" standalone="no"?>
<!-- Generator: Adobe Illustrator 19.0.0, SVG Export Plug-In . SVG Version: 6.00 Build 0)  -->

<svg
   xmlns:dc="http://purl.org/dc/elements/1.1/"
   xmlns:cc="http://creativecommons.org/ns#"
   xmlns:rdf="http://www.w3.org/1999/02/22-rdf-syntax-ns#"
   xmlns:svg="http://www.w3.org/2000/svg"
   xmlns="http://www.w3.org/2000/svg"
   xmlns:sodipodi="http://sodipodi.sourceforge.net/DTD/sodipodi-0.dtd"
   xmlns:inkscape="http://www.inkscape.org/namespaces/inkscape"
   version="1.1"
   id="Layer_1"
   x="0px"
   y="0px"
   viewBox="0 0 512 512"
   style="enable-background:new 0 0 512 512;"
   xml:space="preserve"
   inkscape:version="0.91 r13725"
   sodipodi:docname="owl-3.svg"><metadata
     id="metadata3445"><rdf:RDF><cc:Work
         rdf:about=""><dc:format>image/svg+xml</dc:format><dc:type
           rdf:resource="http://purl.org/dc/dcmitype/StillImage" /></cc:Work></rdf:RDF></metadata><defs
     id="defs3443" /><sodipodi:namedview
     pagecolor="#ffffff"
     bordercolor="#666666"
     borderopacity="1"
     objecttolerance="10"
     gridtolerance="10"
     guidetolerance="10"
     inkscape:pageopacity="0"
     inkscape:pageshadow="2"
     inkscape:window-width="2016"
     inkscape:window-height="1196"
     id="namedview3441"
     showgrid="false"
     inkscape:zoom="2.4003906"
     inkscape:cx="195.59317"
     inkscape:cy="256"
     inkscape:window-x="1730"
     inkscape:window-y="624"
     inkscape:window-maximized="0"
     inkscape:current-layer="Layer_1" /><path
     style="fill:#ffffff;fill-opacity:1"
     d="M256,0.001c141.385,0,256,114.615,256,255.997c0,141.385-114.615,256-256,256  c-141.388,0-256-114.615-256-256C0,114.616,114.615,0.001,256,0.001z"
     id="path3337" /><path
     style="fill:#FFBA1B;"
     d="M488.181,455.237l-76.539-20.05v40.145L488.181,455.237z"
     id="path3339" /><path
     style="fill:#FF5B61;"
     d="M411.641,446.927c5.212,5.469,5.681,11.017,0,16.664H52.334v-16.664H411.641z"
     id="path3341" /><path
     style="fill:#EC4B53;"
     d="M411.641,446.927c5.07-3.586,5.584-7.47,0-11.741H52.334v11.741H411.641z"
     id="path3343" /><path
     style="fill:#ECF0F1;"
     d="M52.337,475.332v-40.145H40.99v40.145H52.337z"
     id="path3345" /><path
     style="fill:#20D0C2;"
     d="M18.293,463.987v-17.456c0-6.24,5.107-11.345,11.347-11.345h11.347v40.145H29.64  C23.4,475.332,18.293,470.225,18.293,463.987z"
     id="path3347" /><path
     style="fill:#666666;"
     d="M493.71,456.06v-1.673l-34.225-6.676v14.972L493.71,456.06z"
     id="path3349" /><path
     style="fill:#EC4B53;"
     d="M411.641,463.591c5.07,3.586,5.584,7.468,0,11.741H52.334v-11.741H411.641z"
     id="path3351" /><path
     style="fill:#FFBA1B;"
     d="M255.932,447.966c-65.544-25.417-100.217-103.858-95.669-169.677  c3.748-54.181,34.078-99.813,95.669-100.291c61.588,0.477,91.921,46.11,95.669,100.291  C356.152,344.108,321.475,422.549,255.932,447.966z"
     id="path3353" /><g
     id="g3355"><path
       style="fill:#F5A209;"
       d="M178.136,219.222c14.951-23.751,39.319-39.78,73.995-41.129   c-5.039,25.469-27.497,44.675-54.443,44.675c-6.883,0-13.472-1.256-19.555-3.546H178.136z"
       id="path3357" /><path
       style="fill:#F5A209;"
       d="M259.733,178.093c34.676,1.348,59.044,17.377,73.995,41.129c-6.08,2.29-12.669,3.546-19.555,3.546   c-26.946,0-49.404-19.206-54.443-44.675H259.733z"
       id="path3359" /></g><path
     style="fill:#0E7886;"
     d="M197.688,212.473c30.571,0,55.5-24.932,55.5-55.503s-24.932-55.5-55.5-55.5  c-30.571,0-55.503,24.932-55.503,55.5C142.185,187.541,167.117,212.473,197.688,212.473z"
     id="path3361" /><path
     style="fill:#FFFFFF;"
     d="M197.688,203.192c25.459,0,46.223-20.764,46.223-46.223s-20.764-46.223-46.223-46.223  s-46.223,20.764-46.223,46.223S172.226,203.192,197.688,203.192z"
     id="path3363" /><path
     style="fill:#ECF0F1;"
     d="M151.68,152.526c-0.139,1.461-0.212,2.946-0.212,4.443c0,25.527,20.696,46.223,46.223,46.223  c25.524,0,46.223-20.696,46.223-46.223c0-1.498-0.076-2.982-0.212-4.443c-2.237,23.439-21.983,41.777-46.007,41.777  c-24.027,0-43.773-18.337-46.01-41.777H151.68z"
     id="path3365" /><path
     style="fill:#0E7886;"
     d="M314.173,212.473c30.571,0,55.503-24.932,55.503-55.503s-24.934-55.5-55.503-55.5  s-55.503,24.932-55.503,55.5C258.67,187.541,283.604,212.473,314.173,212.473z"
     id="path3367" /><path
     style="fill:#15BDB1;"
     d="M205.478,176.522c14.219,0,25.818-11.599,25.818-25.818c0-14.219-11.599-25.816-25.818-25.816  c-14.219,0-25.816,11.599-25.816,25.816C179.663,164.923,191.259,176.522,205.478,176.522z"
     id="path3369" /><path
     style="fill:#FFFFFF;"
     d="M314.176,203.192c25.459,0,46.223-20.764,46.223-46.223s-20.764-46.223-46.223-46.223  c-25.459,0-46.223,20.764-46.223,46.223S288.717,203.192,314.176,203.192z"
     id="path3371" /><path
     style="fill:#ECF0F1;"
     d="M268.165,152.526c-0.139,1.461-0.212,2.946-0.212,4.443c0,25.527,20.695,46.223,46.223,46.223  c25.527,0,46.223-20.696,46.223-46.223c0-1.498-0.073-2.982-0.212-4.443c-2.237,23.439-21.981,41.777-46.01,41.777  c-24.024,0-43.77-18.337-46.008-41.777H268.165z"
     id="path3373" /><path
     style="fill:#20D0C2;"
     d="M205.478,172.608c12.066,0,21.905-9.839,21.905-21.905c0-12.066-9.839-21.902-21.905-21.902  c-12.063,0-21.902,9.839-21.902,21.902C183.576,162.769,193.415,172.608,205.478,172.608z"
     id="path3375" /><path
     style="fill:#666666;"
     d="M205.478,161.502c5.949,0,10.796-4.85,10.796-10.796s-4.85-10.796-10.796-10.796  s-10.796,4.85-10.796,10.796C194.682,156.655,199.532,161.502,205.478,161.502z"
     id="path3377" /><path
     style="fill:#15BDB1;"
     d="M306.385,176.522c14.219,0,25.816-11.599,25.816-25.818c0-14.219-11.599-25.816-25.816-25.816  c-14.219,0-25.818,11.599-25.818,25.816C280.567,164.923,292.166,176.522,306.385,176.522z"
     id="path3379" /><path
     style="fill:#20D0C2;"
     d="M306.385,172.608c12.066,0,21.902-9.839,21.902-21.905c0-12.066-9.839-21.902-21.902-21.902  c-12.066,0-21.905,9.839-21.905,21.902C284.481,162.769,294.319,172.608,306.385,172.608z"
     id="path3381" /><path
     style="fill:#666666;"
     d="M306.385,161.502c5.946,0,10.796-4.85,10.796-10.796s-4.85-10.796-10.796-10.796  c-5.949,0-10.796,4.85-10.796,10.796C295.589,156.655,300.439,161.502,306.385,161.502z"
     id="path3383" /><path
     style="fill:#0E7886;"
     d="M255.932,79.644c0-18.099,59.857,16.74,98.313-22.605c-5.146,120.254-61.622-34.086-98.313,120.957  c-36.685-155.043-93.167-0.706-98.31-120.957C196.075,96.384,255.932,61.545,255.932,79.644z"
     id="path3385" /><path
     style="fill:#FFBA1B;"
     d="M349.353,92.68c-15.489,47.849-61.803-32.832-93.424,100.786  c-31.618-133.621-77.932-52.937-93.424-100.786c25.388,10.259,74.758-5.889,93.424,64.287  C275.027,85.697,323.965,102.939,349.353,92.68z"
     id="path3387" /><path
     style="fill:#0E7886;"
     d="M335.377,221.695c1.579,4.627,2.736,167.825-55.702,213.851  C315.238,425.704,434.8,295.255,335.377,221.695z"
     id="path3389" /><path
     style="fill:#FF5B61;"
     d="M255.929,159.677l-16.291,16.609l16.291,33.139v-49.751V159.677z"
     id="path3391" /><path
     style="fill:#EC4B53;"
     d="M255.929,159.677l16.291,16.609l-16.291,33.139v-49.751V159.677z"
     id="path3393" /><path
     style="fill:#0E7886;"
     d="M176.625,221.695c-1.582,4.627-2.738,167.825,55.702,213.851  C196.765,425.704,77.203,295.255,176.625,221.695z"
     id="path3395" /><path
     style="fill:#15bdb1;fill-opacity:1"
     d="M279.305,421.23c3.544,0,6.639,2.156,8.304,5.367c1.666-3.208,4.761-5.367,8.304-5.367  c3.544,0,6.639,2.156,8.304,5.367c1.666-3.208,4.761-5.367,8.304-5.367c5.306,0,9.608,4.837,9.608,10.802  c0,5.962-4.302,10.799-9.608,10.799c-3.544,0-6.639-2.156-8.304-5.367c-1.666,3.208-4.761,5.367-8.304,5.367  c-3.544,0-6.639-2.156-8.304-5.367c-1.666,3.208-4.763,5.367-8.304,5.367c-5.309,0-9.608-4.837-9.608-10.799  C269.697,426.066,273.996,421.23,279.305,421.23z"
     id="path3397" /><path
     style="fill:#666666;"
     d="M274.282,442.904c2.177,7.237,5.312,13.928,5.312,13.928s4.879-7.856,4.679-13.802  c-0.362-10.773-12.171-7.365-9.991-0.129V442.904z M307.799,442.904L307.799,442.904c1.435,7.237,3.885,13.928,3.885,13.928  s5.684-7.856,6.096-13.802c0.742-10.773-11.413-7.365-9.981-0.129V442.904z M291.56,442.904L291.56,442.904  c1.5,7.237,4.005,13.928,4.005,13.928s5.616-7.856,5.975-13.802c0.653-10.773-11.476-7.365-9.981-0.129V442.904z"
     id="path3399" /><path
     style="fill:#15bdb1;fill-opacity:1"
     d="M232.002,421.23c-3.544,0-6.639,2.156-8.304,5.367c-1.666-3.208-4.761-5.367-8.304-5.367  c-3.544,0-6.639,2.156-8.304,5.367c-1.666-3.208-4.761-5.367-8.304-5.367c-5.306,0-9.608,4.837-9.608,10.802  c0,5.962,4.302,10.799,9.608,10.799c3.544,0,6.639-2.156,8.304-5.367c1.666,3.208,4.761,5.367,8.304,5.367  c3.544,0,6.639-2.156,8.304-5.367c1.666,3.208,4.763,5.367,8.304,5.367c5.309,0,9.608-4.837,9.608-10.799  C241.61,426.066,237.311,421.23,232.002,421.23z"
     id="path3401" /><path
     style="fill:#666666;"
     d="M237.025,442.904c-2.177,7.237-5.312,13.928-5.312,13.928s-4.879-7.856-4.679-13.802  c0.362-10.773,12.171-7.365,9.991-0.129V442.904z M203.508,442.904L203.508,442.904c-1.435,7.237-3.885,13.928-3.885,13.928  s-5.684-7.856-6.096-13.802c-0.742-10.773,11.413-7.365,9.981-0.129V442.904z M219.747,442.904L219.747,442.904  c-1.5,7.237-4.005,13.928-4.005,13.928s-5.616-7.856-5.975-13.802c-0.653-10.773,11.476-7.365,9.981-0.129V442.904z"
     id="path3403" /><g
     id="g3405"><path
       style="fill:#FFFFFF;"
       d="M195.359,149.269c2.972,0,5.398-2.424,5.398-5.401c0-2.974-2.424-5.398-5.398-5.398   c-2.972,0-5.398,2.424-5.398,5.398S192.384,149.269,195.359,149.269z"
       id="path3407" /><path
       style="fill:#FFFFFF;"
       d="M298.784,148.293c2.972,0,5.401-2.424,5.401-5.398s-2.426-5.401-5.401-5.401   c-2.972,0-5.398,2.424-5.398,5.401C293.386,145.869,295.809,148.293,298.784,148.293z"
       id="path3409" /></g><g
     id="g3411" /><g
     id="g3413" /><g
     id="g3415" /><g
     id="g3417" /><g
     id="g3419" /><g
     id="g3421" /><g
     id="g3423" /><g
     id="g3425" /><g
     id="g3427" /><g
     id="g3429" /><g
     id="g3431" /><g
     id="g3433" /><g
     id="g3435" /><g
     id="g3437" /><g
     id="g3439" /></svg>